:FULLY-SPECIFIED
:FORCE-ALL-JOINTS-BE-3DOF
:DEGREES
951
root 1.22458 15.3127 32.7239 6.58774 -3.16567 4.873
lfemur 5.7113 0.922399 3.26815
ltibia 2.94275 -0 0
lfoot -29.7972 -14.0149 -0.00127198
ltoes -31.3468 0 0
rfemur -31.2021 -14.364 -7.92351
rtibia 48.5662 -0 0
rfoot -19.7375 3.14383 -0.00955165
rtoes -42.9567 0 0
lowerback -2.38814 -0.409821 0.312462
upperback -1.44419 -0.554238 -6.81197
thorax -0.222062 -0.313022 -7.28581
lowerneck -6.78343 0.436617 4.09692
upperneck 1.48907 0.124277 3.3364
head 1.61443 0.168098 0.356177
lclavicle -1.1001e-14 3.89424e-14 1.02254e-30
lhumerus -59.0553 -44.1888 112.959
lradius 55.4887 -0 0
lwrist 25.3893 0 0
lhand 40.1435 24.5635 0.000413535
lfingers 7.12502 -0 0
lthumb 62.5059 35.3485 -0.0119577
rclavicle -1.1001e-14 3.89424e-14 1.02254e-30
rhumerus 3.48766 -33.0584 -4.78404
rradius 29.5273 -0 0
rwrist -13.6848 0 0
rhand -37.818 -49.3337 0.0537569
rfingers 7.12502 -0 0
rthumb -10.8629 -79.013 0.0491393
952
root 1.22137 15.308 32.7172 6.55191 -3.20977 4.85053
lfemur 5.79877 0.948689 3.32334
ltibia 2.8562 -0 0
lfoot -29.8063 -13.9472 -0.00141094
ltoes -31.4212 0 0
rfemur -31.2532 -14.398 -7.87532
rtibia 48.6329 -0 0
rfoot -19.8218 3.19835 -0.0105953
rtoes -42.9255 0 0
lowerback -2.36377 -0.41002 0.324205
upperback -1.42281 -0.554326 -6.78541
thorax -0.213485 -0.312509 -7.26394
lowerneck -6.78027 0.457254 4.14919
upperneck 1.47668 0.148114 3.33617
head 1.61018 0.179914 0.348086
lclavicle -1.07126e-14 3.72358e-14 1.13425e-30
lhumerus -59.0336 -44.2157 113.011
lradius 55.4756 -0 0
lwrist 25.3829 0 0
lhand 40.0598 24.5611 0.000458718
lfingers 7.12502 -0 0
lthumb 62.4357 35.4305 -0.0132643
rclavicle -1.07126e-14 3.72358e-14 1.13425e-30
rhumerus 3.4846 -32.8221 -4.64331
rradius 29.4827 -0 0
rwrist -13.6148 0 0
rhand -37.6311 -49.1953 0.0596316
rfingers 7.12502 -0 0
rthumb -10.6825 -78.8819 0.0545092
953
root 1.21816 15.3033 32.7104 6.51609 -3.25388 4.82809
lfemur 5.88626 0.974895 3.37857
ltibia 2.76965 -0 0
lfoot -29.8154 -13.8796 -0.00153922
ltoes -31.4956 0 0
rfemur -31.3044 -14.432 -7.82708
rtibia 48.6996 -0 0
rfoot -19.9061 3.25288 -0.0115587
rtoes -42.8944 0 0
lowerback -2.33939 -0.410225 0.335947
upperback -1.40143 -0.554425 -6.75886
thorax -0.204907 -0.312 -7.24208
lowerneck -6.7771 0.477888 4.20145
upperneck 1.46428 0.171951 3.33593
head 1.60592 0.191729 0.339995
lclavicle -1.04241e-14 3.55291e-14 1.23736e-30
lhumerus -59.0119 -44.2426 113.064
lradius 55.4625 -0 0
lwrist 25.3764 0 0
lhand 39.9761 24.5587 0.000500426
lfingers 7.12502 -0 0
lthumb 62.3655 35.5125 -0.0144705
rclavicle -1.04241e-14 3.55291e-14 1.23736e-30
rhumerus 3.48225 -32.5857 -4.50296
rradius 29.4382 -0 0
rwrist -13.5447 0 0
rhand -37.4441 -49.0569 0.0650548
rfingers 7.12502 -0 0
rthumb -10.5021 -78.7508 0.0594664
954
root 1.21495 15.2986 32.7037 6.48029 -3.298 4.80568
lfemur 5.97379 1.00102 3.43384
ltibia 2.6831 -0 0
lfoot -29.8244 -13.8119 -0.00165682
ltoes -31.57 0 0
rfemur -31.3555 -14.4659 -7.7788
rtibia 48.7664 -0 0
rfoot -19.9905 3.30742 -0.0124419
rtoes -42.8632 0 0
lowerback -2.31502 -0.410434 0.34769
upperback -1.38005 -0.554533 -6.73231
thorax -0.196329 -0.311493 -7.22021
lowerneck -6.7739 0.498519 4.25371
upperneck 1.45189 0.195788 3.33569
head 1.60166 0.203544 0.331903
lclavicle -1.01356e-14 3.38225e-14 1.33189e-30
lhumerus -58.9902 -44.2695 113.117
lradius 55.4494 -0 0
lwrist 25.37 0 0
lhand 39.8924 24.5563 0.000538659
lfingers 7.12502 -0 0
lthumb 62.2953 35.5945 -0.0155761
rclavicle -1.01356e-14 3.38225e-14 1.33189e-30
rhumerus 3.48058 -32.3494 -4.363
rradius 29.3937 -0 0
rwrist -13.4746 0 0
rhand -37.2571 -48.9185 0.0700264
rfingers 7.12502 -0 0
rthumb -10.3216 -78.6197 0.0640108
955
root 1.21174 15.2939 32.697 6.44451 -3.34214 4.78329
lfemur 6.06134 1.02706 3.48915
ltibia 2.59655 -0 0
lfoot -29.8335 -13.7442 -0.00176372
ltoes -31.6444 0 0
rfemur -31.4067 -14.4997 -7.73049
rtibia 48.8331 -0 0
rfoot -20.0748 3.36195 -0.0132448
rtoes -42.832 0 0
lowerback -2.29065 -0.410648 0.359432
upperback -1.35867 -0.554651 -6.70575
thorax -0.187751 -0.31099 -7.19834
lowerneck -6.77069 0.519147 4.30598
upperneck 1.4395 0.219625 3.33544
head 1.5974 0.215358 0.323811
lclavicle -9.84712e-15 3.21159e-14 1.41781e-30
lhumerus -58.9685 -44.2964 113.169
lradius 55.4363 -0 0
lwrist 25.3635 0 0
lhand 39.8086 24.5539 0.000573417
lfingers 7.12502 -0 0
lthumb 62.2251 35.6766 -0.0165813
rclavicle -9.84712e-15 3.21159e-14 1.41781e-30
rhumerus 3.4796 -32.113 -4.2234
rradius 29.3492 -0 0
rwrist -13.4046 0 0
rhand -37.0702 -48.7801 0.0745463
rfingers 7.12502 -0 0
rthumb -10.1412 -78.4886 0.0681422
956
root 1.20853 15.2892 32.6902 6.40874 -3.3863 4.76093
lfemur 6.14892 1.05301 3.5445
ltibia 2.51 -0 0
lfoot -29.8425 -13.6766 -0.00185994
ltoes -31.7188 0 0
rfemur -31.458 -14.5335 -7.68213
rtibia 48.8999 -0 0
rfoot -20.1592 3.41649 -0.0139675
rtoes -42.8009 0 0
lowerback -2.26628 -0.410868 0.371174
upperback -1.33729 -0.554779 -6.6792
thorax -0.179173 -0.31049 -7.17647
lowerneck -6.76746 0.539772 4.35825
upperneck 1.42711 0.243462 3.33519
head 1.59313 0.227171 0.315717
lclavicle -9.55864e-15 3.04092e-14 1.49515e-30
lhumerus -58.9469 -44.3234 113.222
lradius 55.4232 -0 0
lwrist 25.3571 0 0
lhand 39.7249 24.5516 0.000604701
lfingers 7.12502 -0 0
lthumb 62.1549 35.7586 -0.0174861
rclavicle -9.55864e-15 3.04092e-14 1.49515e-30
rhumerus 3.4793 -31.8767 -4.08417
rradius 29.3047 -0 0
rwrist -13.3345 0 0
rhand -36.8832 -48.6417 0.0786144
rfingers 7.12502 -0 0
rthumb -9.96075 -78.3575 0.0718607
